<svg xmlns="http://www.w3.org/2000/svg" xmlns:xlink="http://www.w3.org/1999/xlink" width="500" zoomAndPan="magnify" viewBox="0 0 375 374.999991" height="500" preserveAspectRatio="xMidYMid meet" version="1.0"><defs><g/><clipPath id="b6edc9b44b"><path d="M 0.234375 0.125 L 355.753906 0.125 L 355.753906 201.039062 L 0.234375 201.039062 Z M 0.234375 0.125 " clip-rule="nonzero"/></clipPath><clipPath id="5b4e166153"><path d="M 177.785156 0.125 L 355.339844 201.039062 L 0.234375 201.039062 Z M 177.785156 0.125 " clip-rule="nonzero"/></clipPath><clipPath id="bb6483c569"><path d="M 0.234375 0.125 L 355 0.125 L 355 201.039062 L 0.234375 201.039062 Z M 0.234375 0.125 " clip-rule="nonzero"/></clipPath><clipPath id="f5c33730e5"><path d="M 177.785156 0.125 L 355.339844 201.039062 L 0.234375 201.039062 Z M 177.785156 0.125 " clip-rule="nonzero"/></clipPath><clipPath id="2465cdd621"><rect x="0" width="356" y="0" height="202"/></clipPath><clipPath id="d12710d455"><rect x="0" width="366" y="0" height="214"/></clipPath></defs><g transform="matrix(1, 0, 0, 1, 6, 81)"><g clip-path="url(#d12710d455)"><g clip-path="url(#b6edc9b44b)"><g clip-path="url(#5b4e166153)"><g><g clip-path="url(#2465cdd621)"><g clip-path="url(#bb6483c569)"><g clip-path="url(#f5c33730e5)"><path fill="#1b9cfc" d="M 0.234375 0.125 L 354.96875 0.125 L 354.96875 201.039062 L 0.234375 201.039062 Z M 0.234375 0.125 " fill-opacity="1" fill-rule="nonzero"/></g></g></g></g></g></g><g fill="#272727" fill-opacity="1"><g transform="translate(7.606533, 199.459883)"><g><path d="M 80.546875 -1.890625 C 80.960938 -1.390625 81.046875 -0.945312 80.796875 -0.5625 C 80.546875 -0.1875 80.082031 0 79.40625 0 L 57.703125 0 C 57.191406 0 56.8125 -0.125 56.5625 -0.375 L 27.140625 -36.734375 C 26.722656 -36.316406 25.773438 -35.285156 24.296875 -33.640625 C 22.828125 -32.003906 21.0625 -30.023438 19 -27.703125 C 16.9375 -25.390625 14.8125 -22.992188 12.625 -20.515625 C 10.4375 -18.035156 8.375 -15.695312 6.4375 -13.5 C 4.5 -11.3125 2.941406 -9.546875 1.765625 -8.203125 C 0.585938 -6.859375 0 -6.1875 0 -6.1875 L 0 -99.859375 C 0 -100.617188 0.460938 -101 1.390625 -101 L 18.046875 -101 C 18.890625 -101 19.3125 -100.617188 19.3125 -99.859375 L 19.3125 -53.90625 L 57.3125 -100.625 C 57.570312 -100.875 57.953125 -101 58.453125 -101 L 79.03125 -101 C 79.707031 -101 80.171875 -100.785156 80.421875 -100.359375 C 80.671875 -99.941406 80.585938 -99.523438 80.171875 -99.109375 L 40.015625 -49.609375 Z M 80.546875 -1.890625 "/></g></g></g><g fill="#272727" fill-opacity="1"><g transform="translate(92.570858, 199.459883)"><g><path d="M 41.15625 -17.296875 C 42.082031 -17.296875 42.546875 -16.914062 42.546875 -16.15625 L 42.546875 -1.140625 C 42.546875 -0.378906 42.082031 0 41.15625 0 L 1.390625 0 C 0.460938 0 0 -0.378906 0 -1.140625 L 0 -16.15625 C 0 -16.914062 0.460938 -17.296875 1.390625 -17.296875 L 11.734375 -17.296875 L 11.734375 -101 L 31.0625 -101 L 31.0625 -17.296875 Z M 41.15625 -17.296875 "/></g></g></g><g fill="#272727" fill-opacity="1"><g transform="translate(137.26235, 199.459883)"><g><path d="M 77.015625 -82.4375 L 57.703125 -82.4375 C 55.253906 -82.519531 52.390625 -82.457031 49.109375 -82.25 C 45.828125 -82.039062 42.457031 -81.410156 39 -80.359375 C 35.550781 -79.304688 32.332031 -77.644531 29.34375 -75.375 C 26.363281 -73.101562 23.96875 -69.945312 22.15625 -65.90625 C 20.34375 -61.863281 19.4375 -56.726562 19.4375 -50.5 C 19.4375 -42.5 21.097656 -36.078125 24.421875 -31.234375 C 27.753906 -26.398438 32.300781 -22.972656 38.0625 -20.953125 C 43.832031 -18.929688 50.378906 -18.09375 57.703125 -18.4375 L 57.703125 -43.6875 L 38.25 -43.6875 L 38.25 -63 L 77.015625 -63 L 77.015625 -1.140625 C 77.015625 -0.378906 76.550781 0 75.625 0 L 59.21875 0 C 54.25 0 49.046875 -0.332031 43.609375 -1 C 38.179688 -1.675781 32.878906 -2.984375 27.703125 -4.921875 C 22.535156 -6.859375 17.867188 -9.675781 13.703125 -13.375 C 9.535156 -17.082031 6.207031 -21.96875 3.71875 -28.03125 C 1.238281 -34.09375 0 -41.582031 0 -50.5 C 0 -59.164062 1.21875 -66.46875 3.65625 -72.40625 C 6.101562 -78.34375 9.410156 -83.179688 13.578125 -86.921875 C 17.742188 -90.671875 22.390625 -93.578125 27.515625 -95.640625 C 32.648438 -97.703125 37.953125 -99.109375 43.421875 -99.859375 C 48.898438 -100.617188 54.164062 -101 59.21875 -101 L 75.625 -101 C 76.550781 -101 77.015625 -100.617188 77.015625 -99.859375 Z M 77.015625 -82.4375 "/></g></g></g><g fill="#272727" fill-opacity="1"><g transform="translate(218.186766, 199.459883)"><g><path d="M 19.3125 -57.1875 L 0 -57.1875 L 0 -99.859375 C 0 -100.617188 0.460938 -101 1.390625 -101 L 17.921875 -101 C 18.847656 -101 19.3125 -100.617188 19.3125 -99.859375 Z M 75.5 -101 C 76.425781 -101 76.890625 -100.617188 76.890625 -99.859375 L 76.890625 -1.140625 C 76.890625 -0.378906 76.425781 0 75.5 0 L 58.953125 0 C 58.023438 0 57.5625 -0.378906 57.5625 -1.140625 L 57.5625 -18.9375 L 19.3125 -18.9375 L 19.3125 -1.140625 C 19.3125 -0.378906 18.847656 0 17.921875 0 L 1.390625 0 C 0.460938 0 0 -0.378906 0 -1.140625 L 0 -37.875 L 19.3125 -37.875 L 19.3125 -37.75 L 57.5625 -37.75 L 57.5625 -99.859375 C 57.5625 -100.617188 58.023438 -101 58.953125 -101 Z M 75.5 -101 "/></g></g></g><g fill="#272727" fill-opacity="1"><g transform="translate(298.984932, 199.459883)"><g><path d="M 20.828125 -64.390625 L 40.015625 -64.390625 L 40.015625 -1.140625 C 40.015625 -0.378906 39.507812 0 38.5 0 L 22.21875 0 C 21.289062 0 20.828125 -0.378906 20.828125 -1.140625 Z M 1.390625 -83.703125 C 0.460938 -83.703125 0 -84.082031 0 -84.84375 L 0 -99.859375 C 0 -100.617188 0.460938 -101 1.390625 -101 L 59.34375 -101 C 60.257812 -101 60.71875 -100.617188 60.71875 -99.859375 L 60.71875 -84.84375 C 60.71875 -84.082031 60.257812 -83.703125 59.34375 -83.703125 Z M 1.390625 -83.703125 "/></g></g></g><path fill="#272727" d="M 178.957031 2.503906 L 178.957031 9.605469 L 176.589844 9.605469 L 176.589844 2.503906 M 178.957031 11.972656 L 178.957031 19.074219 L 176.589844 19.074219 L 176.589844 11.972656 M 178.957031 21.441406 L 178.957031 28.546875 L 176.589844 28.546875 L 176.589844 21.441406 M 178.957031 30.914062 L 178.957031 38.015625 L 176.589844 38.015625 L 176.589844 30.914062 M 178.957031 40.382812 L 178.957031 47.484375 L 176.589844 47.484375 L 176.589844 40.382812 M 178.957031 49.851562 L 178.957031 56.953125 L 176.589844 56.953125 L 176.589844 49.851562 M 178.957031 59.320312 L 178.957031 66.421875 L 176.589844 66.421875 L 176.589844 59.320312 M 178.957031 68.789062 L 178.957031 75.890625 L 176.589844 75.890625 L 176.589844 68.789062 M 178.957031 78.261719 L 178.957031 85.363281 L 176.589844 85.363281 L 176.589844 78.261719 M 178.957031 87.730469 L 178.957031 94.449219 L 176.589844 94.449219 L 176.589844 87.730469 " fill-opacity="1" fill-rule="nonzero"/></g></g></svg>