<svg xmlns="http://www.w3.org/2000/svg" xmlns:xlink="http://www.w3.org/1999/xlink" width="500" zoomAndPan="magnify" viewBox="0 0 375 374.999991" height="500" preserveAspectRatio="xMidYMid meet" version="1.0"><defs><g/><clipPath id="79d823193b"><path d="M 0 0.46875 L 367.746094 0.46875 L 367.746094 208.289062 L 0 208.289062 Z M 0 0.46875 " clip-rule="nonzero"/></clipPath><clipPath id="d8ac3c9f15"><path d="M 183.65625 0.46875 L 367.316406 208.289062 L 0 208.289062 Z M 183.65625 0.46875 " clip-rule="nonzero"/></clipPath><clipPath id="1cd78469ac"><path d="M 0 0.46875 L 367 0.46875 L 367 208.289062 L 0 208.289062 Z M 0 0.46875 " clip-rule="nonzero"/></clipPath><clipPath id="4c9b999c18"><path d="M 183.65625 0.46875 L 367.316406 208.289062 L 0 208.289062 Z M 183.65625 0.46875 " clip-rule="nonzero"/></clipPath><clipPath id="dd711cb649"><rect x="0" width="368" y="0" height="209"/></clipPath><clipPath id="23d53e9de6"><rect x="0" width="375" y="0" height="222"/></clipPath></defs><g transform="matrix(1, 0, 0, 1, 0, 77)"><g clip-path="url(#23d53e9de6)"><g clip-path="url(#79d823193b)"><g clip-path="url(#d8ac3c9f15)"><g transform="matrix(1, 0, 0, 1, 0, 0)"><g clip-path="url(#dd711cb649)"><g clip-path="url(#1cd78469ac)"><g clip-path="url(#4c9b999c18)"><path fill="#1b9cfc" d="M 0 0.46875 L 366.933594 0.46875 L 366.933594 208.289062 L 0 208.289062 Z M 0 0.46875 " fill-opacity="1" fill-rule="nonzero"/></g></g></g></g></g></g><g fill="#ffffff" fill-opacity="1"><g transform="translate(7.627428, 206.656205)"><g><path d="M 83.3125 -1.953125 C 83.75 -1.429688 83.835938 -0.972656 83.578125 -0.578125 C 83.316406 -0.191406 82.835938 0 82.140625 0 L 59.6875 0 C 59.15625 0 58.757812 -0.128906 58.5 -0.390625 L 28.078125 -38 C 27.640625 -37.5625 26.660156 -36.492188 25.140625 -34.796875 C 23.617188 -33.097656 21.789062 -31.050781 19.65625 -28.65625 C 17.519531 -26.269531 15.316406 -23.789062 13.046875 -21.21875 C 10.785156 -18.65625 8.65625 -16.238281 6.65625 -13.96875 C 4.65625 -11.707031 3.046875 -9.878906 1.828125 -8.484375 C 0.609375 -7.097656 0 -6.40625 0 -6.40625 L 0 -103.296875 C 0 -104.078125 0.476562 -104.46875 1.4375 -104.46875 L 18.671875 -104.46875 C 19.546875 -104.46875 19.984375 -104.078125 19.984375 -103.296875 L 19.984375 -55.765625 L 59.296875 -104.078125 C 59.554688 -104.335938 59.945312 -104.46875 60.46875 -104.46875 L 81.75 -104.46875 C 82.445312 -104.46875 82.925781 -104.25 83.1875 -103.8125 C 83.445312 -103.382812 83.359375 -102.953125 82.921875 -102.515625 L 41.390625 -51.328125 Z M 83.3125 -1.953125 "/></g></g></g><g fill="#ffffff" fill-opacity="1"><g transform="translate(95.51314, 206.656205)"><g><path d="M 42.578125 -17.890625 C 43.535156 -17.890625 44.015625 -17.5 44.015625 -16.71875 L 44.015625 -1.171875 C 44.015625 -0.390625 43.535156 0 42.578125 0 L 1.4375 0 C 0.476562 0 0 -0.390625 0 -1.171875 L 0 -16.71875 C 0 -17.5 0.476562 -17.890625 1.4375 -17.890625 L 12.140625 -17.890625 L 12.140625 -104.46875 L 32.125 -104.46875 L 32.125 -17.890625 Z M 42.578125 -17.890625 "/></g></g></g><g fill="#ffffff" fill-opacity="1"><g transform="translate(141.74129, 206.656205)"><g><path d="M 79.65625 -85.28125 L 59.6875 -85.28125 C 57.15625 -85.363281 54.191406 -85.296875 50.796875 -85.078125 C 47.398438 -84.859375 43.914062 -84.203125 40.34375 -83.109375 C 36.78125 -82.023438 33.453125 -80.304688 30.359375 -77.953125 C 27.273438 -75.609375 24.796875 -72.347656 22.921875 -68.171875 C 21.046875 -63.992188 20.109375 -58.679688 20.109375 -52.234375 C 20.109375 -43.960938 21.828125 -37.320312 25.265625 -32.3125 C 28.703125 -27.3125 33.398438 -23.765625 39.359375 -21.671875 C 45.328125 -19.585938 52.101562 -18.71875 59.6875 -19.0625 L 59.6875 -45.1875 L 39.5625 -45.1875 L 39.5625 -65.171875 L 79.65625 -65.171875 L 79.65625 -1.171875 C 79.65625 -0.390625 79.175781 0 78.21875 0 L 61.25 0 C 56.113281 0 50.738281 -0.347656 45.125 -1.046875 C 39.507812 -1.742188 34.023438 -3.09375 28.671875 -5.09375 C 23.316406 -7.09375 18.484375 -10.007812 14.171875 -13.84375 C 9.859375 -17.675781 6.414062 -22.722656 3.84375 -28.984375 C 1.28125 -35.253906 0 -43.003906 0 -52.234375 C 0 -61.203125 1.257812 -68.753906 3.78125 -74.890625 C 6.3125 -81.035156 9.726562 -86.039062 14.03125 -89.90625 C 18.34375 -93.78125 23.15625 -96.785156 28.46875 -98.921875 C 33.78125 -101.054688 39.265625 -102.515625 44.921875 -103.296875 C 50.578125 -104.078125 56.019531 -104.46875 61.25 -104.46875 L 78.21875 -104.46875 C 79.175781 -104.46875 79.65625 -104.078125 79.65625 -103.296875 Z M 79.65625 -85.28125 "/></g></g></g><g fill="#ffffff" fill-opacity="1"><g transform="translate(225.448184, 206.656205)"><g><path d="M 19.984375 -59.15625 L 0 -59.15625 L 0 -103.296875 C 0 -104.078125 0.476562 -104.46875 1.4375 -104.46875 L 18.546875 -104.46875 C 19.503906 -104.46875 19.984375 -104.078125 19.984375 -103.296875 Z M 78.09375 -104.46875 C 79.050781 -104.46875 79.53125 -104.078125 79.53125 -103.296875 L 79.53125 -1.171875 C 79.53125 -0.390625 79.050781 0 78.09375 0 L 60.984375 0 C 60.023438 0 59.546875 -0.390625 59.546875 -1.171875 L 59.546875 -19.59375 L 19.984375 -19.59375 L 19.984375 -1.171875 C 19.984375 -0.390625 19.503906 0 18.546875 0 L 1.4375 0 C 0.476562 0 0 -0.390625 0 -1.171875 L 0 -39.171875 L 19.984375 -39.171875 L 19.984375 -39.046875 L 59.546875 -39.046875 L 59.546875 -103.296875 C 59.546875 -104.078125 60.023438 -104.46875 60.984375 -104.46875 Z M 78.09375 -104.46875 "/></g></g></g><g fill="#ffffff" fill-opacity="1"><g transform="translate(309.024489, 206.656205)"><g><path d="M 21.546875 -66.609375 L 41.390625 -66.609375 L 41.390625 -1.171875 C 41.390625 -0.390625 40.867188 0 39.828125 0 L 22.984375 0 C 22.023438 0 21.546875 -0.390625 21.546875 -1.171875 Z M 1.4375 -86.578125 C 0.476562 -86.578125 0 -86.972656 0 -87.765625 L 0 -103.296875 C 0 -104.078125 0.476562 -104.46875 1.4375 -104.46875 L 61.375 -104.46875 C 62.332031 -104.46875 62.8125 -104.078125 62.8125 -103.296875 L 62.8125 -87.765625 C 62.8125 -86.972656 62.332031 -86.578125 61.375 -86.578125 Z M 1.4375 -86.578125 "/></g></g></g><path fill="#272727" d="M 184.871094 2.929688 L 184.871094 10.273438 L 182.421875 10.273438 L 182.421875 2.929688 M 184.871094 12.722656 L 184.871094 20.070312 L 182.421875 20.070312 L 182.421875 12.722656 M 184.871094 22.519531 L 184.871094 29.863281 L 182.421875 29.863281 L 182.421875 22.519531 M 184.871094 32.3125 L 184.871094 39.660156 L 182.421875 39.660156 L 182.421875 32.3125 M 184.871094 42.109375 L 184.871094 49.453125 L 182.421875 49.453125 L 182.421875 42.109375 M 184.871094 51.902344 L 184.871094 59.25 L 182.421875 59.25 L 182.421875 51.902344 M 184.871094 61.699219 L 184.871094 69.046875 L 182.421875 69.046875 L 182.421875 61.699219 M 184.871094 71.492188 L 184.871094 78.839844 L 182.421875 78.839844 L 182.421875 71.492188 M 184.871094 81.289062 L 184.871094 88.636719 L 182.421875 88.636719 L 182.421875 81.289062 M 184.871094 91.085938 L 184.871094 98.035156 L 182.421875 98.035156 L 182.421875 91.085938 " fill-opacity="1" fill-rule="nonzero"/></g></g></svg>